# Blender v2.81 (sub 16) OBJ File: 'brains.ver3.blend'
# www.blender.org
mtllib brains.ver3.mtl
o Plane
v 0.224553 -0.000000 -0.900000
v 0.103341 -0.000000 -0.900000
v -0.139083 -0.000000 -0.900000
v -0.260295 -0.000000 -0.900000
v 1.012432 -0.000000 -0.233333
v 1.012432 -0.000000 -0.354545
v -0.987568 -0.000000 -0.051515
v 0.951826 -0.000000 -0.536363
v 0.951826 -0.000000 -0.415151
v 0.951826 -0.000000 -0.293939
v 0.951826 -0.000000 -0.172727
v 0.951826 -0.000000 -0.051515
v 0.951826 -0.000000 0.069697
v 0.951826 -0.000000 0.190909
v 0.951826 -0.000000 0.312122
v 0.891220 -0.000000 -0.596970
v 0.891220 -0.000000 0.009091
v 0.891220 -0.000000 0.372728
v 0.830614 -0.000000 -0.657576
v 0.830614 -0.000000 -0.536363
v 0.830614 -0.000000 -0.415151
v 0.830614 -0.000000 -0.172727
v 0.830614 -0.000000 -0.051515
v 0.830614 -0.000000 0.069697
v 0.830614 -0.000000 0.312122
v 0.830613 -0.000000 0.433334
v 0.830613 -0.000000 0.554546
v 0.770008 -0.000000 0.493940
v 0.709402 -0.000000 -0.657576
v 0.709402 -0.000000 -0.536363
v 0.709402 -0.000000 -0.293939
v 0.709402 -0.000000 -0.051515
v 0.709402 -0.000000 0.190909
v 0.709401 -0.000000 0.433334
v 0.709401 -0.000000 0.554546
v 0.648796 -0.000000 -0.718182
v 0.648796 -0.000000 0.615152
v 0.588190 -0.000000 -0.778788
v 0.588190 -0.000000 -0.657576
v 0.588189 -0.000000 0.554546
v 0.588189 -0.000000 0.675758
v 0.527584 -0.000000 -0.718182
v 0.527584 -0.000000 0.736364
v 0.466978 -0.000000 -0.718182
v 0.466978 -0.000000 -0.657576
v 0.466978 -0.000000 -0.536363
v 0.466978 -0.000000 -0.293939
v 0.466977 -0.000000 -0.051515
v 0.466977 -0.000000 0.190909
v 0.466977 -0.000000 0.433334
v 0.466977 -0.000000 0.675758
v 0.466977 -0.000000 0.796970
v 0.406372 -0.000000 -0.718182
v 0.345766 -0.000000 -0.778788
v 0.345766 -0.000000 -0.657576
v 0.345765 -0.000000 0.796970
v 0.285159 -0.000000 -0.839394
v 0.285159 -0.000000 0.857576
v 0.224553 -0.000000 -0.778788
v 0.224553 -0.000000 -0.536364
v 0.224553 -0.000000 -0.293939
v 0.224553 -0.000000 -0.051515
v 0.224553 -0.000000 0.190909
v 0.224553 -0.000000 0.433334
v 0.224553 -0.000000 0.675758
v 0.224553 -0.000000 0.796970
v 0.224553 -0.000000 0.918182
v 0.163947 -0.000000 0.857576
v 0.103341 -0.000000 0.796970
v 0.103341 -0.000000 0.918182
v -0.017871 -0.000000 -0.778788
v -0.017871 -0.000000 -0.536364
v -0.017871 -0.000000 -0.293939
v -0.017871 -0.000000 -0.051515
v -0.017871 -0.000000 0.190909
v -0.017871 -0.000000 0.433333
v -0.017871 -0.000000 0.675758
v -0.017871 -0.000000 0.918182
v -0.139083 -0.000000 0.796970
v -0.139083 -0.000000 0.918182
v -0.260295 -0.000000 -0.778788
v -0.260295 -0.000000 -0.536364
v -0.260295 -0.000000 -0.293939
v -0.260295 -0.000000 -0.051515
v -0.260295 -0.000000 0.190909
v -0.260295 -0.000000 0.433333
v -0.260295 -0.000000 0.675758
v -0.260295 -0.000000 0.796970
v -0.260295 -0.000000 0.918182
v -0.320901 -0.000000 -0.839394
v -0.320901 -0.000000 0.857576
v -0.381507 -0.000000 -0.778788
v -0.381507 -0.000000 -0.657576
v -0.381508 -0.000000 0.796970
v -0.381508 -0.000000 0.918182
v -0.442114 -0.000000 0.857575
v -0.502719 -0.000000 -0.778788
v -0.502719 -0.000000 -0.536364
v -0.502719 -0.000000 -0.293939
v -0.502719 -0.000000 -0.051515
v -0.502719 -0.000000 0.190909
v -0.502719 -0.000000 0.433333
v -0.502719 -0.000000 0.675757
v -0.502719 -0.000000 0.796970
v -0.563326 -0.000000 0.857575
v -0.623931 -0.000000 -0.778788
v -0.623931 -0.000000 -0.657576
v -0.623931 -0.000000 0.554545
v -0.623931 -0.000000 0.675757
v -0.623931 -0.000000 0.796970
v -0.684537 -0.000000 -0.718182
v -0.684538 -0.000000 0.736363
v -0.745144 -0.000000 -0.657576
v -0.745144 -0.000000 -0.536364
v -0.745144 -0.000000 -0.293939
v -0.745144 -0.000000 -0.051515
v -0.745144 -0.000000 0.190909
v -0.745144 -0.000000 0.433333
v -0.745144 -0.000000 0.554545
v -0.745144 -0.000000 0.675757
v -0.745144 -0.000000 0.736363
v -0.805749 -0.000000 -0.596970
v -0.805750 -0.000000 0.493939
v -0.866356 -0.000000 -0.536364
v -0.866356 -0.000000 -0.415152
v -0.866356 -0.000000 -0.172727
v -0.866356 -0.000000 -0.051515
v -0.866356 -0.000000 0.069697
v -0.866356 -0.000000 0.312121
v -0.866356 -0.000000 0.433333
v -0.926962 -0.000000 -0.112121
v 0.588190 -0.000000 -0.801929
v 0.734213 -0.000000 -0.718182
v 0.507587 -0.000000 -0.778788
v 1.012432 -0.000000 -0.420842
v 0.951826 -0.000000 -0.582653
v 0.891220 -0.000000 -0.626753
v 0.830614 -0.000000 -0.672078
v 1.000038 -0.000000 -0.475757
v 0.601912 -0.000000 -0.778788
v 0.770008 -0.000000 -0.702704
v 0.235637 -0.000000 -0.900000
v 0.372837 -0.000000 -0.839394
v 0.438987 -0.000000 -0.778788
v -0.684537 -0.000000 -0.771304
v -0.866356 -0.000000 -0.549578
v -0.502719 -0.000000 -0.854604
v -0.330382 -0.000000 -0.900000
v -0.974664 -0.000000 -0.293940
v -0.816639 -0.000000 -0.657576
v -0.767639 -0.000000 -0.718182
v -0.563325 -0.000000 -0.826429
v -0.903614 -0.000000 -0.475758
v -0.623931 -0.000000 -0.826429
v -0.381507 -0.000000 -0.887679
v -0.917701 -0.000000 0.372727
v -0.820721 -0.000000 0.675757
v -0.837055 -0.000000 0.493939
v -0.977930 -0.000000 0.190909
v -0.845221 -0.000000 0.554545
v -0.703326 -0.000000 0.796970
v -0.596137 -0.000000 0.857575
v -0.361346 -0.000000 0.918182
v -0.502719 -0.000000 0.844167
v -0.523658 -0.000000 0.857575
v -0.397075 -0.000000 0.918182
v -0.199689 -0.000000 0.935022
v 0.042735 -0.000000 0.964626
v -0.078477 -0.000000 0.951355
v 0.345765 -0.000000 0.902355
v 0.163947 -0.000000 0.929918
v 0.406371 -0.000000 0.854318
v 0.770008 -0.000000 0.601209
v 0.588189 -0.000000 0.779855
v 0.709401 -0.000000 0.660417
v 0.951826 -0.000000 0.358250
v 0.546177 -0.000000 0.796970
v 0.689094 -0.000000 0.675758
v 0.924907 -0.000000 0.433334
v 1.000449 -0.000000 0.251515
v 0.981053 -0.000000 0.009091
v 1.012432 -0.000000 -0.124605
v 1.000449 -0.000000 0.130303
v 1.003511 -0.000000 -0.112121
v -0.972698 -0.000000 -0.172727
v -0.987568 -0.000000 -0.155803
v 1.001147 -0.000000 -0.103348
v 0.951826 -0.000000 -0.001542
v 0.981154 -0.000000 0.008089
vt 0.151515 0.121212
vt 0.139110 0.090909
vt 0.181818 0.090909
vt 0.804285 0.878788
vt 0.818182 0.848485
vt 0.857879 0.848485
vt 0.965066 0.636364
vt 0.939394 0.666667
vt 0.939394 0.606061
vt 0.878788 0.727273
vt 0.909091 0.696970
vt 0.928827 0.727273
vt 0.878788 0.666667
vt 1.000000 0.424242
vt 0.995181 0.545455
vt 0.939394 0.484848
vt 0.090909 0.242424
vt 0.090909 0.181818
vt 0.151515 0.181818
vt 0.924743 0.696970
vt 0.212121 0.121212
vt 0.272727 0.181818
vt 0.939394 0.424242
vt 0.969697 0.393939
vt 0.992565 0.363636
vt 0.939394 0.363636
vt 0.993548 0.303030
vt 0.090909 0.484848
vt 0.151515 0.424242
vt 0.151515 0.545455
vt 0.272727 0.424242
vt 0.393939 0.303030
vt 0.393939 0.424242
vt 0.916577 0.787879
vt 0.878788 0.787879
vt 0.878788 0.181818
vt 0.909091 0.151515
vt 0.939394 0.181818
vt 0.848485 0.818182
vt 0.818182 0.787879
vt 0.958023 0.212121
vt 0.939394 0.242424
vt 0.636364 0.909091
vt 0.666667 0.878788
vt 0.686889 0.909091
vt 0.818182 0.727273
vt 0.878788 0.303030
vt 0.878788 0.424242
vt 0.818182 0.121212
vt 0.848485 0.090909
vt 0.878788 0.121212
vt 0.787879 0.878788
vt 0.757576 0.848485
vt 0.878788 0.545455
vt 0.757576 0.787879
vt 0.757576 0.666667
vt 0.757576 0.060606
vt 0.787879 0.036786
vt 0.818182 0.060606
vt 0.727273 0.878788
vt 0.696970 0.848485
vt 0.757576 0.872084
vt 0.704753 0.909091
vt 0.696970 0.060606
vt 0.757576 0.022698
vt 0.636364 0.848485
vt 0.636364 0.787879
vt 0.666667 0.030303
vt 0.696970 0.006161
vt 0.393939 0.181818
vt 0.914535 0.121212
vt 0.696970 0.909091
vt 0.015690 0.454545
vt 0.015639 0.454044
vt 0.030303 0.449229
vt 0.363636 0.878788
vt 0.333333 0.901178
vt 0.333333 0.848485
vt 0.030303 0.181818
vt 0.060606 0.151515
vt 0.696970 0.121212
vt 0.757576 0.181818
vt 0.636364 0.060606
vt 0.606061 0.917511
vt 0.575758 0.909091
vt 0.671407 0.000000
vt 0.757576 0.424242
vt 0.575758 0.848485
vt 0.757576 0.303030
vt 0.545455 0.925678
vt 0.515152 0.909091
vt 0.636364 0.000000
vt 0.848485 0.064348
vt 0.890035 0.090909
vt 0.757576 0.545455
vt 0.454545 0.909091
vt 0.454545 0.848485
vt 0.636364 0.545455
vt 0.424242 0.878788
vt 0.636364 0.666667
vt 0.484848 0.932313
vt 0.515152 0.787879
vt 0.939394 0.175211
vt 0.636364 0.181818
vt 0.636364 0.424242
vt 0.393939 0.848485
vt 0.393939 0.787879
vt 0.575758 0.000000
vt 0.043763 0.666667
vt 0.030303 0.629125
vt 0.060606 0.636364
vt 0.393939 0.060606
vt 0.393939 0.000000
vt 0.454545 0.000000
vt 0.515152 0.545455
vt 0.363636 0.030303
vt 0.393939 0.909091
vt 0.424242 0.914959
vt 0.286722 0.060606
vt 0.319797 0.030303
vt 0.333333 0.060606
vt 0.515152 0.060606
vt 0.515152 0.181818
vt 0.272727 0.848485
vt 0.272727 0.787879
vt 0.242424 0.818182
vt 0.303030 0.877159
vt 0.005643 0.398326
vt 0.004460 0.393939
vt 0.030303 0.424242
vt 0.515152 0.666667
vt 0.333333 0.121212
vt 0.303030 0.090909
vt 0.212121 0.787879
vt 0.212121 0.727273
vt 0.515152 0.424242
vt 0.636364 0.303030
vt 0.181818 0.757576
vt 0.272727 0.121212
vt 0.272727 0.666667
vt 0.878788 0.818182
vt 0.272727 0.090909
vt 0.151515 0.780208
vt 0.151515 0.727273
vt 0.212121 0.060606
vt 0.151515 0.666667
vt 0.393939 0.666667
vt 0.121212 0.696970
vt 0.161669 0.787879
vt 0.212121 0.839927
vt 0.242424 0.090909
vt 0.006197 0.212121
vt 0.030303 0.158673
vt 0.515152 0.303030
vt 0.060606 0.454545
vt 0.090909 0.424242
vt 0.090909 0.606061
vt 0.090909 0.666667
vt 0.121212 0.750604
vt 0.090909 0.727273
vt 0.393939 0.545455
vt 0.121212 0.098648
vt 0.090909 0.121212
vt 0.030303 0.363636
vt 0.030303 0.484848
vt 0.272727 0.545455
vt 0.030303 0.606061
vt 0.030303 0.303030
vt 0.000000 0.272727
vt 0.030303 0.242424
vt 0.030303 0.545455
vt 0.005992 0.515152
vt 0.005992 0.575758
vt 0.090909 0.113961
vt 0.388398 0.000000
vt 0.090909 0.363636
vt 0.151515 0.303030
vt 0.060606 0.136623
vt 0.000000 0.387698
vt 0.252422 0.060606
vt 0.205260 0.060606
vt 0.212121 0.049036
vt 0.272727 0.303030
vt 0.818182 0.036786
vt 0.768045 0.878788
vt 1.000000 0.372099
vt 0.233127 0.848485
vt 0.000000 0.333333
vt 0.000000 0.239579
vn 0.0000 1.0000 -0.0000
usemtl Material
s off
f 29/1/1 133/2/1 36/3/1
f 162/4/1 110/5/1 161/6/1
f 156/7/1 130/8/1 129/9/1
f 119/10/1 123/11/1 160/12/1
f 123/11/1 118/13/1 130/8/1
f 7/14/1 159/15/1 128/16/1
f 21/17/1 20/18/1 30/19/1
f 156/7/1 158/20/1 130/8/1
f 30/19/1 39/21/1 46/22/1
f 127/23/1 131/24/1 7/14/1
f 130/8/1 118/13/1 129/9/1
f 185/25/1 126/26/1 149/27/1
f 24/28/1 32/29/1 33/30/1
f 48/31/1 61/32/1 62/33/1
f 123/11/1 119/10/1 118/13/1
f 119/10/1 157/34/1 120/35/1
f 114/36/1 122/37/1 124/38/1
f 112/39/1 109/40/1 120/35/1
f 153/41/1 125/42/1 124/38/1
f 131/24/1 127/23/1 126/26/1
f 89/43/1 91/44/1 163/45/1
f 119/10/1 108/46/1 118/13/1
f 115/47/1 149/27/1 126/26/1
f 114/36/1 124/38/1 125/42/1
f 127/23/1 116/48/1 126/26/1
f 108/46/1 120/35/1 109/40/1
f 112/39/1 110/5/1 109/40/1
f 107/49/1 111/50/1 113/51/1
f 105/52/1 104/53/1 110/5/1
f 122/37/1 114/36/1 113/51/1
f 117/54/1 159/15/1 129/9/1
f 116/48/1 127/23/1 128/16/1
f 109/40/1 103/55/1 108/46/1
f 107/49/1 113/51/1 114/36/1
f 108/46/1 102/56/1 118/13/1
f 103/55/1 110/5/1 104/53/1
f 97/57/1 152/58/1 106/59/1
f 96/60/1 94/61/1 104/53/1
f 111/50/1 107/49/1 106/59/1
f 164/62/1 166/63/1 96/60/1
f 92/64/1 147/65/1 97/57/1
f 114/36/1 125/42/1 115/47/1
f 116/48/1 128/16/1 117/54/1
f 88/66/1 87/67/1 94/61/1
f 104/53/1 94/61/1 103/55/1
f 97/57/1 106/59/1 107/49/1
f 115/47/1 126/26/1 116/48/1
f 92/64/1 90/68/1 155/69/1
f 91/44/1 88/66/1 94/61/1
f 61/32/1 46/22/1 60/70/1
f 122/37/1 113/51/1 150/71/1
f 91/44/1 96/60/1 95/72/1
f 181/73/1 189/74/1 188/75/1
f 58/76/1 170/77/1 56/78/1
f 123/11/1 158/20/1 160/12/1
f 8/79/1 16/80/1 20/18/1
f 117/54/1 129/9/1 118/13/1
f 93/81/1 92/64/1 97/57/1
f 102/56/1 108/46/1 103/55/1
f 98/82/1 107/49/1 114/36/1
f 91/44/1 89/43/1 88/66/1
f 81/83/1 90/68/1 92/64/1
f 167/84/1 80/85/1 89/43/1
f 97/57/1 98/82/1 93/81/1
f 94/61/1 87/67/1 103/55/1
f 148/86/1 155/69/1 90/68/1
f 123/11/1 130/8/1 158/20/1
f 104/53/1 164/62/1 96/60/1
f 115/47/1 98/82/1 114/36/1
f 117/54/1 100/87/1 116/48/1
f 88/66/1 79/88/1 87/67/1
f 116/48/1 99/89/1 115/47/1
f 81/83/1 92/64/1 93/81/1
f 80/85/1 88/66/1 89/43/1
f 169/90/1 78/91/1 80/85/1
f 90/68/1 81/83/1 4/92/1
f 145/93/1 151/94/1 111/50/1
f 113/51/1 111/50/1 151/94/1
f 118/13/1 101/95/1 117/54/1
f 70/96/1 69/97/1 78/91/1
f 80/85/1 78/91/1 79/88/1
f 102/56/1 85/98/1 101/95/1
f 70/96/1 68/99/1 69/97/1
f 103/55/1 86/100/1 102/56/1
f 168/101/1 70/96/1 78/91/1
f 79/88/1 77/102/1 87/67/1
f 131/24/1 126/26/1 185/25/1
f 146/103/1 153/41/1 124/38/1
f 81/83/1 93/81/1 82/104/1
f 84/105/1 99/89/1 100/87/1
f 66/106/1 65/107/1 69/97/1
f 4/92/1 81/83/1 3/108/1
f 77/102/1 78/91/1 69/97/1
f 68/99/1 66/106/1 69/97/1
f 82/104/1 93/81/1 98/82/1
f 179/109/1 176/110/1 18/111/1
f 101/95/1 84/105/1 100/87/1
f 59/112/1 1/113/1 2/114/1
f 86/100/1 75/115/1 85/98/1
f 77/102/1 86/100/1 87/67/1
f 57/116/1 1/113/1 59/112/1
f 58/76/1 56/78/1 66/106/1
f 67/117/1 66/106/1 68/99/1
f 69/97/1 65/107/1 77/102/1
f 168/101/1 171/118/1 70/96/1
f 144/119/1 143/120/1 54/121/1
f 97/57/1 147/65/1 152/58/1
f 60/70/1 71/122/1 72/123/1
f 72/123/1 81/83/1 82/104/1
f 52/124/1 51/125/1 56/78/1
f 66/106/1 56/78/1 65/107/1
f 52/124/1 43/126/1 51/125/1
f 54/121/1 57/116/1 59/112/1
f 172/127/1 52/124/1 56/78/1
f 187/128/1 184/129/1 12/130/1
f 2/114/1 3/108/1 71/122/1
f 65/107/1 76/131/1 77/102/1
f 55/132/1 53/133/1 54/121/1
f 170/77/1 172/127/1 56/78/1
f 169/90/1 80/85/1 167/84/1
f 55/132/1 59/112/1 60/70/1
f 41/134/1 40/135/1 51/125/1
f 55/132/1 54/121/1 59/112/1
f 74/136/1 83/137/1 84/105/1
f 41/134/1 37/138/1 40/135/1
f 45/139/1 53/133/1 55/132/1
f 40/135/1 50/140/1 51/125/1
f 43/126/1 41/134/1 51/125/1
f 120/35/1 121/141/1 112/39/1
f 167/84/1 89/43/1 163/45/1
f 56/78/1 51/125/1 65/107/1
f 44/142/1 53/133/1 45/139/1
f 37/138/1 175/143/1 35/144/1
f 38/145/1 39/21/1 36/3/1
f 35/144/1 34/146/1 40/135/1
f 46/22/1 45/139/1 55/132/1
f 51/125/1 64/147/1 65/107/1
f 35/144/1 28/148/1 34/146/1
f 178/149/1 37/138/1 41/134/1
f 37/138/1 35/144/1 40/135/1
f 174/150/1 178/149/1 41/134/1
f 2/114/1 71/122/1 59/112/1
f 168/101/1 78/91/1 169/90/1
f 39/21/1 42/151/1 45/139/1
f 40/135/1 34/146/1 50/140/1
f 43/126/1 174/150/1 41/134/1
f 42/151/1 44/142/1 45/139/1
f 139/152/1 136/153/1 8/79/1
f 62/33/1 73/154/1 74/136/1
f 54/121/1 143/120/1 57/116/1
f 61/32/1 72/123/1 73/154/1
f 24/28/1 17/155/1 23/156/1
f 64/147/1 75/115/1 76/131/1
f 39/21/1 45/139/1 46/22/1
f 29/1/1 36/3/1 39/21/1
f 25/157/1 33/30/1 34/146/1
f 28/148/1 26/158/1 34/146/1
f 173/159/1 27/160/1 28/148/1
f 26/158/1 18/111/1 25/157/1
f 63/161/1 74/136/1 75/115/1
f 141/162/1 133/2/1 29/1/1
f 99/89/1 82/104/1 98/82/1
f 156/7/1 129/9/1 159/15/1
f 19/163/1 30/19/1 20/18/1
f 12/130/1 184/129/1 11/164/1
f 13/165/1 17/155/1 24/28/1
f 17/155/1 12/130/1 23/156/1
f 49/166/1 32/29/1 48/31/1
f 18/111/1 15/167/1 25/157/1
f 27/160/1 179/109/1 26/158/1
f 46/22/1 55/132/1 60/70/1
f 19/163/1 141/162/1 29/1/1
f 10/168/1 6/169/1 9/170/1
f 15/167/1 14/171/1 25/157/1
f 26/158/1 25/157/1 34/146/1
f 14/171/1 183/172/1 13/165/1
f 35/144/1 173/159/1 28/148/1
f 179/109/1 18/111/1 26/158/1
f 180/173/1 14/171/1 15/167/1
f 28/148/1 27/160/1 26/158/1
f 64/147/1 49/166/1 63/161/1
f 138/174/1 141/162/1 19/163/1
f 16/80/1 19/163/1 20/18/1
f 70/96/1 171/118/1 68/99/1
f 142/175/1 1/113/1 57/116/1
f 8/79/1 21/17/1 9/170/1
f 22/176/1 31/177/1 32/29/1
f 10/168/1 31/177/1 22/176/1
f 136/153/1 137/178/1 16/80/1
f 34/146/1 49/166/1 50/140/1
f 183/172/1 181/73/1 13/165/1
f 11/164/1 23/156/1 12/130/1
f 188/75/1 13/165/1 181/73/1
f 8/79/1 136/153/1 16/80/1
f 24/28/1 25/157/1 14/171/1
f 23/156/1 22/176/1 32/29/1
f 111/50/1 106/59/1 145/93/1
f 30/19/1 29/1/1 39/21/1
f 188/75/1 12/130/1 17/155/1
f 175/143/1 37/138/1 178/149/1
f 182/179/1 11/164/1 184/129/1
f 42/151/1 134/180/1 44/142/1
f 150/71/1 146/103/1 122/37/1
f 12/130/1 188/75/1 187/128/1
f 16/80/1 137/178/1 19/163/1
f 44/142/1 144/119/1 53/133/1
f 143/120/1 142/175/1 57/116/1
f 140/181/1 38/145/1 36/3/1
f 140/181/1 132/182/1 38/145/1
f 176/110/1 180/173/1 15/167/1
f 53/133/1 144/119/1 54/121/1
f 67/117/1 170/77/1 58/76/1
f 48/31/1 31/177/1 47/183/1
f 152/58/1 154/184/1 106/59/1
f 164/62/1 105/52/1 165/185/1
f 137/178/1 138/174/1 19/163/1
f 110/5/1 112/39/1 161/6/1
f 134/180/1 38/145/1 132/182/1
f 11/164/1 10/168/1 22/176/1
f 151/94/1 150/71/1 113/51/1
f 112/39/1 121/141/1 161/6/1
f 154/184/1 145/93/1 106/59/1
f 185/25/1 186/186/1 131/24/1
f 124/38/1 122/37/1 146/103/1
f 120/35/1 157/34/1 121/141/1
f 21/17/1 30/19/1 31/177/1
f 163/45/1 91/44/1 95/72/1
f 176/110/1 15/167/1 18/111/1
f 95/72/1 96/60/1 166/63/1
f 175/143/1 173/159/1 35/144/1
f 134/180/1 144/119/1 44/142/1
f 177/187/1 43/126/1 52/124/1
f 172/127/1 177/187/1 52/124/1
f 75/115/1 84/105/1 85/98/1
f 11/164/1 5/188/1 10/168/1
f 42/151/1 38/145/1 134/180/1
f 31/177/1 46/22/1 47/183/1
f 63/161/1 48/31/1 62/33/1
f 133/2/1 140/181/1 36/3/1
f 180/173/1 183/172/1 14/171/1
f 9/170/1 139/152/1 8/79/1
f 3/108/1 81/83/1 71/122/1
f 14/171/1 13/165/1 24/28/1
f 73/154/1 82/104/1 83/137/1
f 127/23/1 7/14/1 128/16/1
f 149/27/1 125/42/1 153/41/1
f 4/92/1 148/86/1 90/68/1
f 11/164/1 182/179/1 5/188/1
f 10/168/1 5/188/1 6/169/1
f 6/169/1 135/189/1 9/170/1
f 186/186/1 7/14/1 131/24/1
f 24/28/1 23/156/1 32/29/1
f 10/168/1 9/170/1 21/17/1
f 135/189/1 139/152/1 9/170/1
f 174/150/1 43/126/1 177/187/1
f 171/118/1 67/117/1 68/99/1
f 105/52/1 110/5/1 162/4/1
f 48/31/1 47/183/1 61/32/1
f 119/10/1 160/12/1 157/34/1
f 115/47/1 125/42/1 149/27/1
f 108/46/1 119/10/1 120/35/1
f 117/54/1 128/16/1 159/15/1
f 103/55/1 109/40/1 110/5/1
f 92/64/1 155/69/1 147/65/1
f 61/32/1 47/183/1 46/22/1
f 91/44/1 94/61/1 96/60/1
f 97/57/1 107/49/1 98/82/1
f 115/47/1 99/89/1 98/82/1
f 117/54/1 101/95/1 100/87/1
f 116/48/1 100/87/1 99/89/1
f 80/85/1 79/88/1 88/66/1
f 118/13/1 102/56/1 101/95/1
f 102/56/1 86/100/1 85/98/1
f 103/55/1 87/67/1 86/100/1
f 84/105/1 83/137/1 99/89/1
f 77/102/1 79/88/1 78/91/1
f 101/95/1 85/98/1 84/105/1
f 86/100/1 76/131/1 75/115/1
f 77/102/1 76/131/1 86/100/1
f 67/117/1 58/76/1 66/106/1
f 60/70/1 59/112/1 71/122/1
f 72/123/1 71/122/1 81/83/1
f 65/107/1 64/147/1 76/131/1
f 74/136/1 73/154/1 83/137/1
f 38/145/1 42/151/1 39/21/1
f 51/125/1 50/140/1 64/147/1
f 62/33/1 61/32/1 73/154/1
f 61/32/1 60/70/1 72/123/1
f 64/147/1 63/161/1 75/115/1
f 63/161/1 62/33/1 74/136/1
f 99/89/1 83/137/1 82/104/1
f 19/163/1 29/1/1 30/19/1
f 49/166/1 33/30/1 32/29/1
f 64/147/1 50/140/1 49/166/1
f 8/79/1 20/18/1 21/17/1
f 10/168/1 21/17/1 31/177/1
f 34/146/1 33/30/1 49/166/1
f 11/164/1 22/176/1 23/156/1
f 188/75/1 17/155/1 13/165/1
f 24/28/1 33/30/1 25/157/1
f 48/31/1 32/29/1 31/177/1
f 164/62/1 104/53/1 105/52/1
f 75/115/1 74/136/1 84/105/1
f 31/177/1 30/19/1 46/22/1
f 63/161/1 49/166/1 48/31/1
f 73/154/1 72/123/1 82/104/1
